<?xml version="1.0" encoding="utf-8"?>
<!-- Generator: Adobe Illustrator 16.0.0, SVG Export Plug-In . SVG Version: 6.00 Build 0)  -->
<!DOCTYPE svg PUBLIC "-//W3C//DTD SVG 1.1//EN" "http://www.w3.org/Graphics/SVG/1.1/DTD/svg11.dtd">
<svg version="1.1" id="Layer_1" xmlns="http://www.w3.org/2000/svg" xmlns:xlink="http://www.w3.org/1999/xlink" x="0px" y="0px"
	 width="841.89px" height="595.28px" viewBox="0 0 841.89 595.28" enable-background="new 0 0 841.89 595.28" xml:space="preserve">
<g id="Ellipse_1_2_">
	<g>
		<circle fill="#E7E7E7" cx="410.917" cy="251.705" r="155.467"/>
	</g>
</g>
<g>
	<g>
		<circle fill="#6E6D6E" cx="412.256" cy="212.948" r="12.322"/>
		<path fill="#6E6D6E" d="M412.316,236.834c2.806,0,5.655-4.708,6.063-9.685c-0.981-0.499-2.006-0.907-3.053-1.165l-3.07,3.091
			l-2.977-3.124c-0.009,0.002-0.021,0.002-0.029,0.005c-1.031,0.245-2.042,0.629-3.007,1.11
			C406.625,232.073,409.494,236.834,412.316,236.834z"/>
		<path fill="#6E6D6E" d="M420.206,227.923c-0.029-0.02-0.064-0.029-0.095-0.048c-0.584,5.07-3.371,10.082-7.057,10.683
			c-0.523,2.557,0.384,3.587,1.445,4.744c1.937,2.109,3.042,4.112-0.321,9.645c0.237,0.355,0.377,0.782,0.377,1.241
			c0,1.236-1.002,2.239-2.239,2.239c-1.236,0-2.238-1.003-2.238-2.239s1.002-2.239,2.238-2.239c0.123,0,0.24,0.018,0.357,0.036
			c2.931-4.804,1.853-6.006,0.505-7.474c-1.137-1.239-2.52-2.761-1.943-6.031c-3.48-0.839-6.102-5.604-6.701-10.467
			c-0.179,0.077-18.082,9.513-15.546,35.809c0.247,2.469,2.328,4.308,4.754,4.308c0.16,0,0.32-0.007,0.482-0.024
			c2.63-0.263,4.547-2.607,4.284-5.235c-0.725-7.236-0.203-12.3,1.136-16.053c0,0,0,16.352,0,17.075c0,3.731,0.104,3.62,0.875,4.534
			l0.002,45.622c0,3.122,2.653,5.654,5.776,5.654s5.532-2.532,5.532-5.654l-0.002-39.313c0.225,0.01,0.447,0.027,0.673,0.027
			c0.043,0,0.088-0.005,0.132-0.005l-0.002,39.29c0,3.122,2.654,5.654,5.776,5.654c3.123,0,5.531-2.532,5.531-5.654l0.005-45.65
			c0.709-0.889,0.927-1.095,0.927-4.506c0-0.402,0-17.368,0-17.368c1.155,3.063,1.917,9.442,1.269,15.911
			c-0.264,2.629,1.657,4.972,4.283,5.235c0.162,0.017,0.322,0.024,0.485,0.024c2.427,0,4.507-1.841,4.754-4.307
			C437.814,241.869,429.504,233.625,420.206,227.923z"/>
	</g>
</g>
<path fill="#F5853A" d="M447.409,285.981l-2.856-13.674c-0.408-1.428-1.837-2.652-3.471-2.652h-3.876v-2.449
	c0-2.041-1.633-3.673-3.674-3.673h-4.897c-2.041,0-3.674,1.632-3.674,3.673v2.449h-3.877c-1.633,0-3.061,1.225-3.47,2.652
	l-2.856,13.674c-0.408,2.04,1.224,4.081,3.469,4.081h25.511C446.186,290.063,447.818,288.021,447.409,285.981z M427.002,267.206
	c0-0.816,0.816-1.633,1.633-1.633h4.897c0.816,0,1.634,0.816,1.634,1.633v2.449h-8.164V267.206L427.002,267.206z M437.206,281.9
	h-4.082v4.081h-4.081V281.9h-4.082v-4.082h4.082v-4.082h4.081v4.082h4.082V281.9z"/>
<g>
	<path fill="#F5853A" d="M504.045,247.451c-4.55,0-8.237,3.881-8.237,8.667v87.936H328.623v-87.936c0-4.786-3.687-8.667-8.238-8.667
		c-4.55,0-8.237,3.881-8.237,8.667v96.602c0,4.786,3.687,8.666,8.237,8.666h183.66c4.551,0,8.238-3.88,8.238-8.666v-96.602
		C512.283,251.332,508.594,247.451,504.045,247.451z"/>
	<path fill="#F5853A" d="M547.897,249.99L418.026,113.383c-3.216-3.384-8.432-3.383-11.649,0L276.522,249.99
		c-3.216,3.384-3.216,8.871,0,12.254c1.609,1.692,3.718,2.539,5.826,2.539c2.109,0,4.216-0.846,5.825-2.539l124.031-130.479
		L536.25,262.244c3.216,3.385,8.432,3.384,11.649-0.001C551.114,258.86,551.114,253.373,547.897,249.99z"/>
</g>
<ellipse fill="#F5853A" cx="339.385" cy="157.205" rx="7.95" ry="7.831"/>
<line fill="#F5853A" stroke="#F5853A" stroke-width="15.8642" stroke-miterlimit="10" x1="339.33" y1="157.207" x2="339.33" y2="193.408"/>
<text transform="matrix(1 0 0 1 264 463)" fill="#F37021" stroke="#F37021" stroke-width="4" stroke-miterlimit="10" font-family="'SFProverbialGothicExtended-Oblique'" font-size="90" letter-spacing="7">vimedo</text>
</svg>
