<?xml version="1.0" encoding="UTF-8"?>
<svg width="24px" height="24px" viewBox="0 0 24 24" version="1.1" xmlns="http://www.w3.org/2000/svg" xmlns:xlink="http://www.w3.org/1999/xlink">
    <!-- Generator: Sketch 40.1 (33804) - http://www.bohemiancoding.com/sketch -->
    <title>ic_calendar</title>
    <desc>Created with Sketch.</desc>
    <defs></defs>
    <g id="Page-1" stroke="none" stroke-width="1" fill="none" fill-rule="evenodd">
        <g id="Modal---AFILIADO-SELECT" transform="translate(-764.000000, -447.000000)" fill="#0068E9">
            <g id="ic_calendar" transform="translate(764.000000, 447.000000)">
                <path d="M21.3333333,2.66666667 L20.1333333,2.66666667 L20.1333333,5.33333333 L15.8666667,5.33333333 L15.8666667,2.66666667 L8.13333333,2.66666667 L8.13333333,5.33333333 L3.86666667,5.33333333 L3.86666667,2.66666667 L2.66666667,2.66666667 C1.2,2.66666667 0,3.86666667 0,5.33333333 L0,21.3333333 C0,22.8 1.2,24 2.66666667,24 L21.3333333,24 C22.8,24 24,22.8 24,21.3333333 L24,5.33333333 C24,3.86666667 22.8,2.66666667 21.3333333,2.66666667 L21.3333333,2.66666667 Z M21.3333333,21.3333333 L2.66666667,21.3333333 L2.66666667,10.6666667 L21.3333333,10.6666667 L21.3333333,21.3333333 L21.3333333,21.3333333 Z M6.93333333,0 L5.06666667,0 L5.06666667,4.53333333 L6.93333333,4.53333333 L6.93333333,0 L6.93333333,0 Z M18.9333333,0 L17.0666667,0 L17.0666667,4.53333333 L18.9333333,4.53333333 L18.9333333,0 L18.9333333,0 Z" id="Shape"></path>
            </g>
        </g>
    </g>
</svg>