<?xml version="1.0" encoding="UTF-8"?>
<svg width="54px" height="38px" viewBox="0 0 54 38" version="1.1" xmlns="http://www.w3.org/2000/svg" xmlns:xlink="http://www.w3.org/1999/xlink">
    <!-- Generator: Sketch 40.1 (33804) - http://www.bohemiancoding.com/sketch -->
    <title>ic_dashboard</title>
    <desc>Created with Sketch.</desc>
    <defs>
        <rect id="path-1" x="0" y="0" width="50" height="34"></rect>
        <mask id="mask-2" maskContentUnits="userSpaceOnUse" maskUnits="objectBoundingBox" x="-2" y="-2" width="54" height="38">
            <rect x="-2" y="-2" width="54" height="38" fill="white"></rect>
            <use xlink:href="#path-1" fill="black"></use>
        </mask>
        <rect id="path-3" x="0" y="0" width="50" height="34"></rect>
        <mask id="mask-4" maskContentUnits="userSpaceOnUse" maskUnits="objectBoundingBox" x="-2" y="-2" width="54" height="38">
            <rect x="-2" y="-2" width="54" height="38" fill="white"></rect>
            <use xlink:href="#path-3" fill="black"></use>
        </mask>
    </defs>
    <g id="Page-1" stroke="none" stroke-width="1" fill="none" fill-rule="evenodd">
        <g id="Selección-de-Profesional---Filtrado" transform="translate(-34.000000, -93.000000)">
            <g id="ic_dashboard" transform="translate(36.000000, 95.000000)">
                <g id="Group">
                    <use id="Rectangle-path" stroke="#9B9B9B" mask="url(#mask-2)" stroke-width="4" xlink:href="#path-1"></use>
                    <path d="M28.90625,30.1363636 C28.4742188,30.1363636 28.125,29.7909545 28.125,29.3636364 L28.125,27.0454545 C28.125,26.6181364 28.4742188,26.2727273 28.90625,26.2727273 C29.3382812,26.2727273 29.6875,26.6181364 29.6875,27.0454545 L29.6875,29.3636364 C29.6875,29.7909545 29.3382812,30.1363636 28.90625,30.1363636 L28.90625,30.1363636 Z" id="Shape" fill="#9B9B9B"></path>
                    <path d="M32.03125,30.1363636 C31.5992188,30.1363636 31.25,29.7909545 31.25,29.3636364 L31.25,23.9545455 C31.25,23.5272273 31.5992188,23.1818182 32.03125,23.1818182 C32.4632812,23.1818182 32.8125,23.5272273 32.8125,23.9545455 L32.8125,29.3636364 C32.8125,29.7909545 32.4632812,30.1363636 32.03125,30.1363636 L32.03125,30.1363636 Z" id="Shape" fill="#9B9B9B"></path>
                    <path d="M35.15625,30.1363636 C34.7242188,30.1363636 34.375,29.7909545 34.375,29.3636364 L34.375,25.5 C34.375,25.0726818 34.7242188,24.7272727 35.15625,24.7272727 C35.5882812,24.7272727 35.9375,25.0726818 35.9375,25.5 L35.9375,29.3636364 C35.9375,29.7909545 35.5882812,30.1363636 35.15625,30.1363636 L35.15625,30.1363636 Z" id="Shape" fill="#9B9B9B"></path>
                    <path d="M38.28125,30.1363636 C37.8492188,30.1363636 37.5,29.7909545 37.5,29.3636364 L37.5,20.0909091 C37.5,19.6635909 37.8492188,19.3181818 38.28125,19.3181818 C38.7132812,19.3181818 39.0625,19.6635909 39.0625,20.0909091 L39.0625,29.3636364 C39.0625,29.7909545 38.7132812,30.1363636 38.28125,30.1363636 L38.28125,30.1363636 Z" id="Shape" fill="#9B9B9B"></path>
                    <path d="M41.40625,30.1363636 C40.9742188,30.1363636 40.625,29.7909545 40.625,29.3636364 L40.625,23.1818182 C40.625,22.7545 40.9742188,22.4090909 41.40625,22.4090909 C41.8382812,22.4090909 42.1875,22.7545 42.1875,23.1818182 L42.1875,29.3636364 C42.1875,29.7909545 41.8382812,30.1363636 41.40625,30.1363636 L41.40625,30.1363636 Z" id="Shape" fill="#9B9B9B"></path>
                    <path d="M14.84375,27.0454545 L7.03125,27.0454545 C6.59921875,27.0454545 6.25,26.7000455 6.25,26.2727273 C6.25,25.8454091 6.59921875,25.5 7.03125,25.5 L14.84375,25.5 C15.2757813,25.5 15.625,25.8454091 15.625,26.2727273 C15.625,26.7000455 15.2757813,27.0454545 14.84375,27.0454545 L14.84375,27.0454545 Z" id="Shape" fill="#9B9B9B"></path>
                    <path d="M18.75,30.1363636 L7.03125,30.1363636 C6.59921875,30.1363636 6.25,29.7909545 6.25,29.3636364 C6.25,28.9363182 6.59921875,28.5909091 7.03125,28.5909091 L18.75,28.5909091 C19.1820313,28.5909091 19.53125,28.9363182 19.53125,29.3636364 C19.53125,29.7909545 19.1820313,30.1363636 18.75,30.1363636 L18.75,30.1363636 Z" id="Shape" fill="#9B9B9B"></path>
                    <path d="M15.234375,21.6363636 C10.2804688,21.6363636 6.25,17.6498636 6.25,12.75 C6.25,7.85013636 10.2804688,3.86363636 15.234375,3.86363636 C20.1882813,3.86363636 24.21875,7.85013636 24.21875,12.75 C24.21875,17.6498636 20.1882813,21.6363636 15.234375,21.6363636 L15.234375,21.6363636 Z M15.234375,5.40909091 C11.1421875,5.40909091 7.8125,8.70245455 7.8125,12.75 C7.8125,16.7975455 11.1421875,20.0909091 15.234375,20.0909091 C19.3265625,20.0909091 22.65625,16.7975455 22.65625,12.75 C22.65625,8.70245455 19.3265625,5.40909091 15.234375,5.40909091 L15.234375,5.40909091 Z" id="Shape" fill="#9B9B9B"></path>
                    <path d="M23.4179688,13.9090909 L14.0914062,13.9090909 L14.0625,13.1077727 L14.0625,4.37595455 L14.5109375,3.89145455 L14.8195313,3.87290909 C17.3320312,3.75931818 19.8078125,4.70590909 21.5875,6.46618182 C23.3671875,8.22645455 24.3234375,10.6667273 24.209375,13.1603182 L24.19375,13.5003182 L23.7117187,13.8982727 L23.4179688,13.9090909 L23.4179688,13.9090909 Z M15.625,12.3636364 L22.646875,12.3636364 C22.5539063,10.5469545 21.8,8.86240909 20.4820312,7.55881818 C19.1640625,6.25522727 17.4617187,5.51031818 15.625,5.41836364 L15.625,12.3636364 L15.625,12.3636364 Z" id="Shape" fill="#9B9B9B"></path>
                    <path d="M20.63125,19.6334545 C20.43125,19.6334545 20.23125,19.5577273 20.0789063,19.4070455 L14.2914063,13.6826818 C13.9859375,13.3805455 13.9859375,12.8921818 14.2914063,12.5900455 C14.596875,12.2879091 15.090625,12.2879091 15.3960938,12.5900455 L21.1835938,18.3144091 C21.4890625,18.6165455 21.4890625,19.1049091 21.1835938,19.4070455 C21.03125,19.5585 20.83125,19.6334545 20.63125,19.6334545 L20.63125,19.6334545 Z" id="Shape" fill="#9B9B9B"></path>
                    <path d="M37.5,9.27272727 L31.25,9.27272727 C30.8179688,9.27272727 30.46875,8.92731818 30.46875,8.5 C30.46875,8.07268182 30.8179688,7.72727273 31.25,7.72727273 L37.5,7.72727273 C37.9320312,7.72727273 38.28125,8.07268182 38.28125,8.5 C38.28125,8.92731818 37.9320312,9.27272727 37.5,9.27272727 L37.5,9.27272727 Z" id="Shape" fill="#9B9B9B"></path>
                    <path d="M41.40625,9.27272727 C41.1945312,9.27272727 40.9992187,9.18772727 40.8515625,9.04090909 C40.7101563,8.90954545 40.625,8.70863636 40.625,8.5 C40.625,8.29059091 40.7101563,8.09045455 40.859375,7.95136364 C41.1328125,7.67318182 41.6640625,7.66545455 41.9609375,7.95136364 C42.1015625,8.09740909 42.1875,8.29909091 42.1875,8.5 C42.1875,8.70090909 42.1015625,8.90181818 41.9609375,9.04863636 C41.8125,9.18772727 41.609375,9.27272727 41.40625,9.27272727 L41.40625,9.27272727 Z" id="Shape" fill="#9B9B9B"></path>
                    <path d="M41.40625,5.40909091 L39.0625,5.40909091 C38.6304688,5.40909091 38.28125,5.06368182 38.28125,4.63636364 C38.28125,4.20904545 38.6304688,3.86363636 39.0625,3.86363636 L41.40625,3.86363636 C41.8382812,3.86363636 42.1875,4.20904545 42.1875,4.63636364 C42.1875,5.06368182 41.8382812,5.40909091 41.40625,5.40909091 L41.40625,5.40909091 Z" id="Shape" fill="#9B9B9B"></path>
                    <path d="M32.8125,5.40909091 L31.25,5.40909091 C30.8179688,5.40909091 30.46875,5.06368182 30.46875,4.63636364 C30.46875,4.20904545 30.8179688,3.86363636 31.25,3.86363636 L32.8125,3.86363636 C33.2445312,3.86363636 33.59375,4.20904545 33.59375,4.63636364 C33.59375,5.06368182 33.2445312,5.40909091 32.8125,5.40909091 L32.8125,5.40909091 Z" id="Shape" fill="#9B9B9B"></path>
                    <path d="M35.9375,5.40909091 C35.7257812,5.40909091 35.5304687,5.32409091 35.3828125,5.185 C35.2414063,5.03818182 35.15625,4.845 35.15625,4.63636364 C35.15625,4.42695455 35.2414063,4.23377273 35.3828125,4.08772727 C35.6632812,3.80181818 36.203125,3.80181818 36.4921875,4.08772727 C36.6328125,4.23377273 36.71875,4.42695455 36.71875,4.63636364 C36.71875,4.845 36.6328125,5.03818182 36.4921875,5.185 C36.34375,5.32409091 36.1484375,5.40909091 35.9375,5.40909091 L35.9375,5.40909091 Z" id="Shape" fill="#9B9B9B"></path>
                </g>
                <g id="Group-Copy">
                    <use id="Rectangle-path" stroke="#9B9B9B" mask="url(#mask-4)" stroke-width="4" xlink:href="#path-3"></use>
                    <path d="M28.90625,30.1363636 C28.4742188,30.1363636 28.125,29.7909545 28.125,29.3636364 L28.125,27.0454545 C28.125,26.6181364 28.4742188,26.2727273 28.90625,26.2727273 C29.3382812,26.2727273 29.6875,26.6181364 29.6875,27.0454545 L29.6875,29.3636364 C29.6875,29.7909545 29.3382812,30.1363636 28.90625,30.1363636 L28.90625,30.1363636 Z" id="Shape" fill="#9B9B9B"></path>
                    <path d="M32.03125,30.1363636 C31.5992188,30.1363636 31.25,29.7909545 31.25,29.3636364 L31.25,23.9545455 C31.25,23.5272273 31.5992188,23.1818182 32.03125,23.1818182 C32.4632812,23.1818182 32.8125,23.5272273 32.8125,23.9545455 L32.8125,29.3636364 C32.8125,29.7909545 32.4632812,30.1363636 32.03125,30.1363636 L32.03125,30.1363636 Z" id="Shape" fill="#9B9B9B"></path>
                    <path d="M35.15625,30.1363636 C34.7242188,30.1363636 34.375,29.7909545 34.375,29.3636364 L34.375,25.5 C34.375,25.0726818 34.7242188,24.7272727 35.15625,24.7272727 C35.5882812,24.7272727 35.9375,25.0726818 35.9375,25.5 L35.9375,29.3636364 C35.9375,29.7909545 35.5882812,30.1363636 35.15625,30.1363636 L35.15625,30.1363636 Z" id="Shape" fill="#9B9B9B"></path>
                    <path d="M38.28125,30.1363636 C37.8492188,30.1363636 37.5,29.7909545 37.5,29.3636364 L37.5,20.0909091 C37.5,19.6635909 37.8492188,19.3181818 38.28125,19.3181818 C38.7132812,19.3181818 39.0625,19.6635909 39.0625,20.0909091 L39.0625,29.3636364 C39.0625,29.7909545 38.7132812,30.1363636 38.28125,30.1363636 L38.28125,30.1363636 Z" id="Shape" fill="#9B9B9B"></path>
                    <path d="M41.40625,30.1363636 C40.9742188,30.1363636 40.625,29.7909545 40.625,29.3636364 L40.625,23.1818182 C40.625,22.7545 40.9742188,22.4090909 41.40625,22.4090909 C41.8382812,22.4090909 42.1875,22.7545 42.1875,23.1818182 L42.1875,29.3636364 C42.1875,29.7909545 41.8382812,30.1363636 41.40625,30.1363636 L41.40625,30.1363636 Z" id="Shape" fill="#9B9B9B"></path>
                    <path d="M14.84375,27.0454545 L7.03125,27.0454545 C6.59921875,27.0454545 6.25,26.7000455 6.25,26.2727273 C6.25,25.8454091 6.59921875,25.5 7.03125,25.5 L14.84375,25.5 C15.2757813,25.5 15.625,25.8454091 15.625,26.2727273 C15.625,26.7000455 15.2757813,27.0454545 14.84375,27.0454545 L14.84375,27.0454545 Z" id="Shape" fill="#9B9B9B"></path>
                    <path d="M18.75,30.1363636 L7.03125,30.1363636 C6.59921875,30.1363636 6.25,29.7909545 6.25,29.3636364 C6.25,28.9363182 6.59921875,28.5909091 7.03125,28.5909091 L18.75,28.5909091 C19.1820313,28.5909091 19.53125,28.9363182 19.53125,29.3636364 C19.53125,29.7909545 19.1820313,30.1363636 18.75,30.1363636 L18.75,30.1363636 Z" id="Shape" fill="#9B9B9B"></path>
                    <path d="M15.234375,21.6363636 C10.2804688,21.6363636 6.25,17.6498636 6.25,12.75 C6.25,7.85013636 10.2804688,3.86363636 15.234375,3.86363636 C20.1882813,3.86363636 24.21875,7.85013636 24.21875,12.75 C24.21875,17.6498636 20.1882813,21.6363636 15.234375,21.6363636 L15.234375,21.6363636 Z M15.234375,5.40909091 C11.1421875,5.40909091 7.8125,8.70245455 7.8125,12.75 C7.8125,16.7975455 11.1421875,20.0909091 15.234375,20.0909091 C19.3265625,20.0909091 22.65625,16.7975455 22.65625,12.75 C22.65625,8.70245455 19.3265625,5.40909091 15.234375,5.40909091 L15.234375,5.40909091 Z" id="Shape" fill="#9B9B9B"></path>
                    <path d="M23.4179688,13.9090909 L14.0914062,13.9090909 L14.0625,13.1077727 L14.0625,4.37595455 L14.5109375,3.89145455 L14.8195313,3.87290909 C17.3320312,3.75931818 19.8078125,4.70590909 21.5875,6.46618182 C23.3671875,8.22645455 24.3234375,10.6667273 24.209375,13.1603182 L24.19375,13.5003182 L23.7117187,13.8982727 L23.4179688,13.9090909 L23.4179688,13.9090909 Z M15.625,12.3636364 L22.646875,12.3636364 C22.5539063,10.5469545 21.8,8.86240909 20.4820312,7.55881818 C19.1640625,6.25522727 17.4617187,5.51031818 15.625,5.41836364 L15.625,12.3636364 L15.625,12.3636364 Z" id="Shape" fill="#9B9B9B"></path>
                    <path d="M20.63125,19.6334545 C20.43125,19.6334545 20.23125,19.5577273 20.0789063,19.4070455 L14.2914063,13.6826818 C13.9859375,13.3805455 13.9859375,12.8921818 14.2914063,12.5900455 C14.596875,12.2879091 15.090625,12.2879091 15.3960938,12.5900455 L21.1835938,18.3144091 C21.4890625,18.6165455 21.4890625,19.1049091 21.1835938,19.4070455 C21.03125,19.5585 20.83125,19.6334545 20.63125,19.6334545 L20.63125,19.6334545 Z" id="Shape" fill="#9B9B9B"></path>
                    <path d="M37.5,9.27272727 L31.25,9.27272727 C30.8179688,9.27272727 30.46875,8.92731818 30.46875,8.5 C30.46875,8.07268182 30.8179688,7.72727273 31.25,7.72727273 L37.5,7.72727273 C37.9320312,7.72727273 38.28125,8.07268182 38.28125,8.5 C38.28125,8.92731818 37.9320312,9.27272727 37.5,9.27272727 L37.5,9.27272727 Z" id="Shape" fill="#9B9B9B"></path>
                    <path d="M41.40625,9.27272727 C41.1945312,9.27272727 40.9992187,9.18772727 40.8515625,9.04090909 C40.7101563,8.90954545 40.625,8.70863636 40.625,8.5 C40.625,8.29059091 40.7101563,8.09045455 40.859375,7.95136364 C41.1328125,7.67318182 41.6640625,7.66545455 41.9609375,7.95136364 C42.1015625,8.09740909 42.1875,8.29909091 42.1875,8.5 C42.1875,8.70090909 42.1015625,8.90181818 41.9609375,9.04863636 C41.8125,9.18772727 41.609375,9.27272727 41.40625,9.27272727 L41.40625,9.27272727 Z" id="Shape" fill="#9B9B9B"></path>
                    <path d="M41.40625,5.40909091 L39.0625,5.40909091 C38.6304688,5.40909091 38.28125,5.06368182 38.28125,4.63636364 C38.28125,4.20904545 38.6304688,3.86363636 39.0625,3.86363636 L41.40625,3.86363636 C41.8382812,3.86363636 42.1875,4.20904545 42.1875,4.63636364 C42.1875,5.06368182 41.8382812,5.40909091 41.40625,5.40909091 L41.40625,5.40909091 Z" id="Shape" fill="#9B9B9B"></path>
                    <path d="M32.8125,5.40909091 L31.25,5.40909091 C30.8179688,5.40909091 30.46875,5.06368182 30.46875,4.63636364 C30.46875,4.20904545 30.8179688,3.86363636 31.25,3.86363636 L32.8125,3.86363636 C33.2445312,3.86363636 33.59375,4.20904545 33.59375,4.63636364 C33.59375,5.06368182 33.2445312,5.40909091 32.8125,5.40909091 L32.8125,5.40909091 Z" id="Shape" fill="#9B9B9B"></path>
                    <path d="M35.9375,5.40909091 C35.7257812,5.40909091 35.5304687,5.32409091 35.3828125,5.185 C35.2414063,5.03818182 35.15625,4.845 35.15625,4.63636364 C35.15625,4.42695455 35.2414063,4.23377273 35.3828125,4.08772727 C35.6632812,3.80181818 36.203125,3.80181818 36.4921875,4.08772727 C36.6328125,4.23377273 36.71875,4.42695455 36.71875,4.63636364 C36.71875,4.845 36.6328125,5.03818182 36.4921875,5.185 C36.34375,5.32409091 36.1484375,5.40909091 35.9375,5.40909091 L35.9375,5.40909091 Z" id="Shape" fill="#9B9B9B"></path>
                </g>
            </g>
        </g>
    </g>
</svg>