<?xml version="1.0" encoding="UTF-8"?>
<svg width="40px" height="40px" viewBox="0 0 40 40" version="1.1" xmlns="http://www.w3.org/2000/svg" xmlns:xlink="http://www.w3.org/1999/xlink">
    <!-- Generator: Sketch 40.1 (33804) - http://www.bohemiancoding.com/sketch -->
    <title>ic_doctor</title>
    <desc>Created with Sketch.</desc>
    <defs></defs>
    <g id="Page-1" stroke="none" stroke-width="1" fill="none" fill-rule="evenodd">
        <g id="Dashboard" transform="translate(-42.000000, -337.000000)" fill="#9B9B9B">
            <path d="M56.25,375 C57,375.75 58.75,377 60.75,377 C67.5,377 69,372 69.25,368 C69.75,362.25 71.25,362.5 72,362.5 C73.75,362.5 74.25,363.5 74.25,365.25 C72.75,366.25 71.75,367.75 71.75,369.5 C71.75,372.25 74,374.5 76.75,374.5 C79.5,374.5 81.75,372.25 81.75,369.5 C81.75,366.75 79.5,364.5 76.75,364.5 L76.25,364.5 C75.75,362.25 74.5,360 71.75,360 C67.75,360 66.75,363.5 66.5,367.25 C66.25,372.5 64.5,374.5 60.75,374.5 C59.75,374.5 58.75,374 58.25,373.5 C56.75,372.25 57,367.75 57,367.75 C62,367.75 67,363.25 68.75,355.75 L68.25,355.5 C69,352.5 69.5,349 69.5,346.5 C69.5,343.75 68.75,341.75 67,340.25 C65.25,338.75 63.25,338.25 61.75,338.25 C61.25,337.5 60.5,337 59.5,337 C58.25,337 57,338 57,339.5 C57,341 58,342 59.5,342 C60.5,342 61.25,341.5 61.5,340.75 C62.75,340.75 64,341.25 65.25,342.25 C66.5,343.25 67,344.5 67,346.5 C67,348.75 66.5,352 65.75,355.25 L65.25,355 C64.5,357.75 62,364 57,364 L54.5,364 C49.5,364 47,357.75 46.25,355 L45.75,355.25 C45,352 44.5,348.75 44.5,346.5 C44.5,344.5 45,343.25 46.25,342.25 C47.25,341.25 48.75,341 50,340.75 C50.25,341.5 51,342 52,342 C53.5,342 54.5,341 54.5,339.5 C54.5,338 53.5,337 52,337 C51,337 50.25,337.5 49.75,338.25 C48.25,338.25 46.25,338.75 44.5,340.25 C42.75,341.75 42,343.75 42,346.5 C42,349 42.5,352.5 43.25,355.75 L42.75,356 C44.5,363.25 49.5,367.75 54.5,367.75 C54.5,367.75 54.25,373.25 56.25,375 L56.25,375 Z M77,372 C75.5,372 74.5,371 74.5,369.5 C74.5,368 75.5,367 77,367 C78.5,367 79.5,368 79.5,369.5 C79.5,371 78.25,372 77,372 L77,372 Z" id="ic_doctor"></path>
        </g>
    </g>
</svg>