<?xml version="1.0" encoding="UTF-8"?>
<svg width="30px" height="42px" viewBox="0 0 30 42" version="1.1" xmlns="http://www.w3.org/2000/svg" xmlns:xlink="http://www.w3.org/1999/xlink">
    <!-- Generator: Sketch 40.1 (33804) - http://www.bohemiancoding.com/sketch -->
    <title>ic_maps_blue</title>
    <desc>Created with Sketch.</desc>
    <defs></defs>
    <g id="Page-1" stroke="none" stroke-width="1" fill="none" fill-rule="evenodd">
        <g id="Selección-de-Profesional---Sin-F" transform="translate(-45.000000, -465.000000)">
            <g id="placeholder(1)" transform="translate(45.000000, 465.000000)">
                <g id="ic_maps_blue">
                    <path d="M25.3384615,4.28934545 C22.5523077,1.52345455 18.8476923,0 14.9076923,0 C10.9669231,0 7.26307692,1.52345455 4.47692308,4.28934545 C-0.679230769,9.40723636 -1.32,19.0366909 3.08923077,24.8708727 L14.9076923,41.8144364 L26.7084615,24.8945455 C31.1353846,19.0366909 30.4946154,9.40723636 25.3384615,4.28934545 Z" id="Shape"></path>
                    <path d="M25.3384615,4.28934545 C22.5523077,1.52345455 18.8476923,0 14.9076923,0 C10.9669231,0 7.26307692,1.52345455 4.47692308,4.28934545 C-0.679230769,9.40723636 -1.32,19.0366909 3.08923077,24.8708727 L14.9076923,41.8144364 L26.7084615,24.8945455 C31.1353846,19.0366909 30.4946154,9.40723636 25.3384615,4.28934545 Z M25.4607692,24.0018545 L14.9076923,39.1310182 L4.33769231,23.9781818 C0.338461538,18.6846545 0.911538462,9.98836364 5.56538462,5.36912727 C8.06076923,2.89189091 11.3784615,1.52727273 14.9076923,1.52727273 C18.4369231,1.52727273 21.7546154,2.89189091 24.2507692,5.36912727 C28.9046154,9.98836364 29.4776923,18.6846545 25.4607692,24.0018545 Z" id="Shape-Copy" fill="#0068E9"></path>
                    <path d="M15.0438462,9.16363636 C12.0753846,9.16363636 9.65923077,11.5622182 9.65923077,14.5090909 C9.65923077,17.4559636 12.0753846,19.8545455 15.0438462,19.8545455 C18.0123077,19.8545455 20.4284615,17.4559636 20.4284615,14.5090909 C20.4284615,11.5622182 18.0123077,9.16363636 15.0438462,9.16363636 L15.0438462,9.16363636 Z" id="Shape" fill="#0068E9"></path>
                </g>
            </g>
        </g>
    </g>
</svg>