<?xml version="1.0" encoding="UTF-8"?>
<svg width="40px" height="40px" viewBox="0 0 40 40" version="1.1" xmlns="http://www.w3.org/2000/svg" xmlns:xlink="http://www.w3.org/1999/xlink">
    <!-- Generator: Sketch 40.1 (33804) - http://www.bohemiancoding.com/sketch -->
    <title>ic_user_avatar</title>
    <desc>Created with Sketch.</desc>
    <defs></defs>
    <g id="Page-1" stroke="none" stroke-width="1" fill="none" fill-rule="evenodd">
        <g id="Dashboard" transform="translate(-41.000000, -218.000000)" fill="#9B9B9B">
            <g id="ic_user_avatar" transform="translate(41.000000, 218.000000)">
                <path d="M19.5564444,0 C8.77355554,0 0.00088888889,8.77345435 0.00088888889,19.5563433 C0.00088888889,30.3392322 8.77355554,39.1126865 19.5564444,39.1126865 C30.3385456,39.1126865 39.112,30.3392322 39.112,19.5563433 C39.112,8.77345435 30.3401211,0 19.5564444,0 L19.5564444,0 Z M30.8324365,30.3345059 L30.8324365,29.5633431 C30.8324365,26.8961752 27.7509359,25.9233599 26.1014824,25.2175766 C25.5044022,24.963148 24.3787723,24.4212072 23.2239973,23.8564229 C22.8340835,23.6657984 22.4827672,23.1577289 22.4386557,22.7237036 L22.3110476,21.4602254 C23.1948522,20.637074 23.9912216,19.4909638 24.1259191,18.2133068 L24.3252084,18.2133068 C24.6387148,18.2133068 24.9341041,17.9785709 24.9805786,17.6910587 L25.2932974,15.7588192 C25.3350457,15.3460619 24.9451319,15.0955718 24.6292624,15.0955718 C24.6379271,15.0546112 24.6450165,15.0128629 24.648955,14.9782039 C24.6891279,14.745831 24.7135468,14.5213352 24.7293009,14.303141 C24.7489935,14.1274828 24.7647476,13.9455231 24.7734123,13.7572617 C24.8064959,12.8450997 24.6521058,12.0471549 24.3961018,11.6005263 C24.1361593,10.9758765 23.7423069,10.369344 23.1940645,9.8494589 C21.6667052,8.40323317 19.8951574,7.84002435 18.3843399,9.00267641 C17.3555977,8.82465516 16.1330801,9.29491483 15.2500631,10.329171 C14.7679879,10.8939553 14.4678724,11.5398731 14.3394766,12.1755507 C14.2244717,12.5717662 14.1480643,13.0514783 14.1291594,13.5705757 C14.1086791,14.1479632 14.1653938,14.676513 14.271734,15.1042366 C13.9708308,15.1231415 13.6699276,15.3704808 13.6699276,15.7603946 L13.9818587,17.6926341 C14.0283332,17.9801463 14.3237225,18.2148822 14.6372289,18.2148822 L14.8160379,18.2148822 C15.0996116,19.5965162 15.8337523,20.7308109 16.6458758,21.5216664 L16.5229939,22.7433963 C16.4788824,23.1766338 16.1275661,23.6831279 15.7368646,23.8761155 C14.6198994,24.4212072 13.519476,24.9458185 12.8609549,25.2175766 C11.3091768,25.8571927 8.13000084,26.8961752 8.13000084,29.5633431 L8.13000084,30.1667248 C5.54002796,27.3774627 3.94256294,23.6555582 3.94256294,19.5587064 C3.94256294,10.9475192 10.9484081,3.94167405 19.5595953,3.94167405 C28.1715702,3.94167405 35.1766276,10.9475192 35.1766276,19.5587064 C35.1734768,23.7359041 33.5153585,27.5271266 30.8324365,30.3345059 L30.8324365,30.3345059 Z" id="Shape"></path>
            </g>
        </g>
    </g>
</svg>