<?xml version="1.0" encoding="UTF-8"?>
<svg width="30px" height="30px" viewBox="0 0 30 30" version="1.1" xmlns="http://www.w3.org/2000/svg" xmlns:xlink="http://www.w3.org/1999/xlink">
    <!-- Generator: Sketch 40.1 (33804) - http://www.bohemiancoding.com/sketch -->
    <title>ic_user_mail</title>
    <desc>Created with Sketch.</desc>
    <defs></defs>
    <g id="Page-1" stroke="none" stroke-width="1" fill="none" fill-rule="evenodd">
        <g id="Dashboard" transform="translate(-1189.000000, -17.000000)">
            <g id="ic_user_mail" transform="translate(1189.000000, 17.000000)">
                <g id="Group">
                    <path d="M14.8125,20.8343023 L14.8125,20.8343023 L14.8473837,20.8343023 L14.8822674,20.8343023 L14.8822674,20.8343023 C21.3880814,20.7645349 20.4462209,12.0784884 20.4462209,12.0784884 C20.1758721,6.27906977 15.3270349,6.32267442 14.8473837,6.34011628 C14.3677326,6.32267442 9.51889535,6.27034884 9.24854651,12.0784884 C9.25726744,12.0872093 8.31540698,20.7732558 14.8125,20.8343023 L14.8125,20.8343023 Z" id="XMLID_7410_" fill="#FFFFFF"></path>
                    <path d="M14.9781977,0 C6.72819767,0 0.0130813953,6.71511628 0.0130813953,14.9651163 C0.0130813953,18.8982558 1.54796512,22.4912791 4.04215116,25.1598837 C4.09447674,25.2296512 4.15552326,25.2994186 4.2252907,25.3517442 C6.94622093,28.1686047 10.7659884,29.9302326 14.9781977,29.9302326 C23.2281977,29.9302326 29.943314,23.2151163 29.943314,14.9651163 C29.943314,6.71511628 23.2281977,0 14.9781977,0 L14.9781977,0 Z M6.23982558,25.0813953 C10.3037791,23.755814 11.7340116,22.1424419 12.2311047,21.0959302 C12.9811047,21.4360465 13.818314,21.6104651 14.7601744,21.627907 L14.8212209,21.627907 L14.8561047,21.627907 L14.8909884,21.627907 L14.9520349,21.627907 C15.9636628,21.6104651 16.8706395,21.4011628 17.6642442,21.0087209 C18.1264535,22.0465116 19.5218023,23.7209302 23.7078488,25.0813953 C21.3619186,27.1046512 18.309593,28.3430233 14.9694767,28.3430233 C11.6380814,28.3430233 8.58575581,27.1133721 6.23982558,25.0813953 L6.23982558,25.0813953 Z M14.8822674,20.0494186 L14.8561047,20.0494186 L14.8561047,20.0494186 L14.8299419,20.0494186 C13.443314,20.0319767 12.3880814,19.5959302 11.6031977,18.7063953 C9.61482558,16.4738372 10.0508721,12.2180233 10.0508721,12.1744186 L10.0508721,12.122093 C10.2601744,7.5 13.6787791,7.14244186 14.7252907,7.14244186 L14.8299419,7.14244186 L14.8909884,7.14244186 L14.9956395,7.14244186 C16.0334302,7.14244186 19.4520349,7.5 19.6700581,12.122093 L19.6700581,12.1744186 C19.6787791,12.2180233 20.1061047,16.4651163 18.1177326,18.7063953 C17.3241279,19.5959302 16.2688953,20.0319767 14.8822674,20.0494186 L14.8822674,20.0494186 Z M24.9898256,23.8255814 C19.2165698,22.1511628 19.0247093,20.1017442 19.0247093,20.0843023 L19.0247093,20.127907 L18.9375,20.127907 C19.059593,20.0145349 19.181686,19.8924419 19.2950581,19.7616279 C21.6758721,17.0755814 21.2834302,12.4709302 21.2398256,12.0348837 C21.0130814,7.25581395 17.7340116,5.55523256 14.9869186,5.55523256 L14.8473837,5.55523256 L14.7078488,5.55523256 C11.9694767,5.55523256 8.69040698,7.24709302 8.45494186,12.0261628 C8.41133721,12.4534884 8.01017442,17.0668605 10.3997093,19.752907 C10.5479651,19.9186047 10.7136628,20.0755814 10.8706395,20.2238372 C10.7398256,20.6598837 9.88517442,22.377907 4.94912791,23.8168605 C2.85610465,21.4534884 1.58284884,18.3575581 1.58284884,14.9563953 C1.58284884,7.57848837 7.58284884,1.56976744 14.9694767,1.56976744 C22.3561047,1.56976744 28.3561047,7.56976744 28.3561047,14.9563953 C28.3648256,18.3575581 27.0828488,21.4622093 24.9898256,23.8255814 L24.9898256,23.8255814 Z" id="Shape" fill="#000000"></path>
                </g>
            </g>
        </g>
    </g>
</svg>