<?xml version="1.0" encoding="UTF-8"?>
<svg width="80px" height="111px" viewBox="0 0 80 111" version="1.1" xmlns="http://www.w3.org/2000/svg" xmlns:xlink="http://www.w3.org/1999/xlink">
    <!-- Generator: Sketch 40.1 (33804) - http://www.bohemiancoding.com/sketch -->
    <title>ic_vimedo</title>
    <desc>Created with Sketch.</desc>
    <defs></defs>
    <g id="Page-1" stroke="none" stroke-width="1" fill="none" fill-rule="evenodd">
        <g id="Landing-Page---Administrativo" transform="translate(-680.000000, -200.000000)">
            <g id="ic_vimedo" transform="translate(680.000000, 200.000000)">
                <g id="placeholder(1)-copy">
                    <g id="Group">
                        <path d="M68.0772701,11.3361273 C60.5916638,4.02627273 50.6384114,0 40.0527473,0 C29.4650164,0 19.5138307,4.02627273 12.0282244,11.3361273 C-1.82490071,24.8619818 -3.54646617,50.3112545 8.29988818,65.7301636 L40.0527473,110.509582 L71.7580721,65.7927273 C83.6519607,50.3112545 81.9303952,24.8619818 68.0772701,11.3361273 Z" id="Shape" fill="#FFFFFF"></path>
                        <path d="M68.0772701,11.3361273 C60.5916638,4.02627273 50.6384114,0 40.0527473,0 C29.4650164,0 19.5138307,4.02627273 12.0282244,11.3361273 C-1.82490071,24.8619818 -3.54646617,50.3112545 8.29988818,65.7301636 L40.0527473,110.509582 L71.7580721,65.7927273 C83.6519607,50.3112545 81.9303952,24.8619818 68.0772701,11.3361273 Z M68.4058762,63.4334727 L40.0527473,103.417691 L11.6541508,63.3709091 C0.909350299,49.3808727 2.44904569,26.3978182 14.9526123,14.1898364 C21.657004,7.64285455 30.5707037,4.03636364 40.0527473,4.03636364 C49.5347908,4.03636364 58.4484905,7.64285455 65.1549489,14.1898364 C77.6585155,26.3978182 79.1982109,49.3808727 68.4058762,63.4334727 Z" id="Shape-Copy" fill="#0068E9"></path>
                    </g>
                </g>
                <g id="doctor" transform="translate(17.196262, 9.620000)" fill="#0068E9">
                    <path d="M23.1776665,0.489485667 C17.5031889,0.489485667 12.8878573,5.18940606 12.8878573,10.9663022 L12.8878573,16.3940712 C12.8878573,22.1713962 17.5031889,26.8713166 23.1776665,26.8713166 C28.8525654,26.8713166 33.4674757,22.1713962 33.4674757,16.3940712 L33.4674757,10.9663022 C33.4675811,5.18940606 28.8525654,0.489485667 23.1776665,0.489485667 L23.1776665,0.489485667 Z" id="Shape"></path>
                    <path d="M45.8705212,40.5237318 C42.575541,34.807311 37.3088809,30.5693193 31.0407929,28.5903603 C30.8954447,28.5444677 30.7383002,28.5834979 30.6300263,28.6924393 C27.7142152,31.6192742 24.091043,33.9027544 23.1852499,34.4543238 C22.2183685,33.8251229 18.1456701,31.1226043 15.7244641,28.6924393 C15.6166116,28.5834979 15.4582031,28.5444677 15.3136975,28.5903603 C9.04476693,30.5697482 3.77852818,34.80774 0.484811821,40.5241607 C0.409399283,40.6549762 0.409399283,40.8175305 0.484811821,40.9483459 C5.16207442,49.0623352 13.8572665,54.1028046 23.1772452,54.1028046 C32.4976452,54.1028046 41.1932586,49.0623352 45.8705212,40.9483459 C45.9463551,40.8171016 45.9463551,40.6545473 45.8705212,40.5237318 L45.8705212,40.5237318 Z M37.17238,43.64872 C37.17238,43.8798988 36.9562536,44.0566068 36.7295947,44.0566068 L33.9427011,44.0566068 C33.7156209,44.0566068 33.467897,44.255189 33.467897,44.4867967 L33.467897,47.4209229 C33.467897,47.6516728 33.3465629,47.827952 33.1194827,47.827952 L30.6165447,47.827952 C30.3894645,47.827952 30.1754446,47.6516728 30.1754446,47.4209229 L30.1754446,44.4867967 C30.174602,44.2556179 30.0195639,44.0566068 29.7924837,44.0566068 L26.8855199,44.0566068 C26.6584397,44.0566068 26.4705403,43.8794699 26.4705403,43.64872 L26.4705403,41.1224806 C26.4705403,40.8913018 26.6584397,40.704729 26.8855199,40.704729 L29.7924837,40.704729 C30.0195639,40.704729 30.174602,40.5160116 30.174602,40.2844039 L30.174602,37.3468464 C30.174602,37.1156676 30.3886219,36.9333838 30.6157021,36.9333838 L33.0916769,36.9333838 C33.3183358,36.9333838 33.4674757,37.1156676 33.4674757,37.3468464 L33.4674757,40.292982 C33.4674757,40.5245896 33.6873939,40.7043001 33.9148954,40.7043001 L36.7295947,40.7043001 C36.9562536,40.7043001 37.17238,40.8998799 37.17238,41.1310587 L37.17238,43.64872 L37.17238,43.64872 Z" id="Shape"></path>
                </g>
            </g>
        </g>
    </g>
</svg>