<?xml version="1.0" encoding="UTF-8"?>
<svg width="22px" height="12px" viewBox="0 0 22 12" version="1.1" xmlns="http://www.w3.org/2000/svg" xmlns:xlink="http://www.w3.org/1999/xlink">
    <!-- Generator: Sketch 40.1 (33804) - http://www.bohemiancoding.com/sketch -->
    <title>Shape Copy 2</title>
    <desc>Created with Sketch.</desc>
    <defs></defs>
    <g id="Page-1" stroke="none" stroke-width="1" fill="none" fill-rule="evenodd">
        <g id="Iniciar-Sesión" transform="translate(-830.000000, -390.000000)" fill="#0068E9">
            <path d="M840.857828,390 C836.708821,390 832.946284,392.092833 830.169914,395.49215 C829.943362,395.770648 829.943362,396.159727 830.169914,396.438225 C832.946284,399.841638 836.708821,401.934471 840.857828,401.934471 C845.006836,401.934471 848.769373,399.841638 851.545743,396.442321 C851.772295,396.163823 851.772295,395.774744 851.545743,395.496246 C848.769373,392.092833 845.006836,390 840.857828,390 L840.857828,390 Z M841.155455,400.169283 C838.401296,400.32901 836.126894,398.236177 836.300139,395.692833 C836.442289,393.595904 838.285799,391.896246 840.560201,391.765188 C843.314361,391.605461 845.588763,393.698294 845.415517,396.241638 C845.268925,398.334471 843.425415,400.03413 841.155455,400.169283 L841.155455,400.169283 Z M841.017747,398.227986 C839.534055,398.313993 838.30801,397.187713 838.405738,395.819795 C838.481255,394.68942 839.476307,393.776109 840.702352,393.702389 C842.186044,393.616382 843.412089,394.742662 843.314361,396.11058 C843.234401,397.245051 842.23935,398.158362 841.017747,398.227986 L841.017747,398.227986 Z" id="Shape-Copy-2"></path>
        </g>
    </g>
</svg>