<?xml version="1.0" encoding="UTF-8"?>
<svg width="147px" height="23px" viewBox="0 0 147 23" version="1.1" xmlns="http://www.w3.org/2000/svg" xmlns:xlink="http://www.w3.org/1999/xlink">
    <!-- Generator: Sketch 40.1 (33804) - http://www.bohemiancoding.com/sketch -->
    <title>VIMEDo</title>
    <desc>Created with Sketch.</desc>
    <defs></defs>
    <g id="Page-1" stroke="none" stroke-width="1" fill="none" fill-rule="evenodd">
        <g id="Selección-de-Profesional---Filtrado" transform="translate(-31.000000, -24.000000)" fill="#0068E9">
            <path d="M41.2392578,46 L49.1494141,24.8623047 L47.0400391,24.8623047 L40.2871094,43.5097656 L40.1992188,43.5097656 L33.4609375,24.8623047 L31.3369141,24.8623047 L39.2470703,46 L41.2392578,46 Z M61.7893877,46 L61.7893877,24.8623047 L59.7972002,24.8623047 L59.7972002,46 L61.7893877,46 Z M94.439127,46 L94.439127,24.8623047 L92.1246738,24.8623047 L84.3024082,43.3632812 L84.2145176,43.3632812 L76.3776035,24.8623047 L74.0777988,24.8623047 L74.0777988,46 L75.9527988,46 L75.9527988,28.65625 L76.0406895,28.65625 L83.3795567,45.8974609 L85.1227207,45.8974609 L92.4762363,28.65625 L92.564127,28.65625 L92.564127,46 L94.439127,46 Z M119.486327,44.1835938 L108.719726,44.1835938 L108.719726,36.0683594 L118.944335,36.0683594 L118.944335,34.28125 L108.719726,34.28125 L108.719726,26.6787109 L119.486327,26.6787109 L119.486327,24.8623047 L106.727538,24.8623047 L106.727538,46 L119.486327,46 L119.486327,44.1835938 Z M131.232746,24.8623047 L131.232746,46 L138.190754,46 C144.533527,46 148.210285,42.1181641 148.210285,35.4238281 C148.210285,28.7441406 144.518879,24.8623047 138.190754,24.8623047 L131.232746,24.8623047 Z M133.239582,26.6787109 L138.073566,26.6787109 C143.273762,26.6787109 146.174152,29.8134766 146.174152,35.4384766 C146.174152,41.0488281 143.273762,44.1835938 138.073566,44.1835938 L133.239582,44.1835938 L133.239582,26.6787109 Z M168.379556,24.5253906 C162.490884,24.5253906 158.784829,28.7441406 158.784829,35.4384766 C158.784829,42.1328125 162.490884,46.3369141 168.379556,46.3369141 C174.282876,46.3369141 177.988931,42.1328125 177.988931,35.4384766 C177.988931,28.7441406 174.268228,24.5253906 168.379556,24.5253906 L168.379556,24.5253906 Z M168.379556,26.3857422 C173.008462,26.3857422 175.938149,29.8867188 175.938149,35.4384766 C175.938149,40.9755859 173.008462,44.4765625 168.379556,44.4765625 C163.750649,44.4765625 160.83561,40.9755859 160.83561,35.4384766 C160.83561,29.8867188 163.750649,26.3857422 168.379556,26.3857422 L168.379556,26.3857422 Z" id="VIMEDo"></path>
        </g>
    </g>
</svg>