<?xml version="1.0" encoding="UTF-8"?>
<svg width="88px" height="101px" viewBox="0 0 88 101" version="1.1" xmlns="http://www.w3.org/2000/svg" xmlns:xlink="http://www.w3.org/1999/xlink">
    <!-- Generator: Sketch 40.1 (33804) - http://www.bohemiancoding.com/sketch -->
    <title>001-doctor</title>
    <desc>Created with Sketch.</desc>
    <defs>
        <linearGradient x1="50.0011501%" y1="-0.00223527333%" x2="50.0011501%" y2="99.9984028%" id="linearGradient-1">
            <stop stop-color="#FFFFFF" offset="0%"></stop>
            <stop stop-color="#A6A6A6" offset="100%"></stop>
        </linearGradient>
        <linearGradient x1="49.9991659%" y1="99.9992485%" x2="49.9991659%" y2="-0.000567713418%" id="linearGradient-2">
            <stop stop-color="#FFFFFF" offset="0%"></stop>
            <stop stop-color="#D1D1D1" offset="100%"></stop>
        </linearGradient>
    </defs>
    <g id="Page-1" stroke="none" stroke-width="1" fill="none" fill-rule="evenodd">
        <g id="Dashboard" transform="translate(-135.000000, -225.000000)">
            <g id="001-doctor" transform="translate(135.000000, 225.000000)">
                <g id="Group" transform="translate(0.000000, 58.502979)" fill="#44C4A1">
                    <path d="M31.0247535,0.161556345 L4.63840443,18.7451868 C1.65737396,20.844685 -0.0307146814,24.3428694 0.175756233,27.993798 L0.954105263,41.760112 L48.2610526,41.760112 L48.2610526,0.161556345 L31.0247535,0.161556345 L31.0247535,0.161556345 Z" id="Shape"></path>
                    <path d="M83.7140831,19.9309125 L57.0408199,0.161556345 L48.2612964,0.161556345 L48.2612964,25.5746141 L45.6169086,30.9338787 L48.2612964,37.5212162 L48.2612964,41.7598672 L87.1112244,41.7598672 L87.9629474,29.1454989 C88.2059834,25.5469537 86.6039446,22.0725132 83.7140831,19.9309125 L83.7140831,19.9309125 Z" id="Shape"></path>
                </g>
                <path d="M56.7356233,73.0193064 L31.3299501,73.0193064 L31.3299501,50.8060434 L56.7356233,50.8060434 C57.8250194,58.1818249 57.7964986,65.5869802 56.7356233,73.0193064 L56.7356233,73.0193064 Z" id="Shape" fill="#F6C358"></path>
                <path d="M30.5235679,66.4371093 C39.1188033,72.5434496 48.1052853,72.8354749 57.5420055,66.4371093 L50.6204765,81.1749644 L45.0611191,85.9350018 L37.5004321,80.7282367 L30.5235679,66.4371093 L30.5235679,66.4371093 Z" id="Shape" fill="#64798A"></path>
                <path d="M72.5063934,87.7806607 C73.0339058,91.2391904 70.1101607,94.1751098 66.6659723,93.6454008 C64.5200886,93.3151894 62.7664266,91.5542252 62.4375845,89.3994063 C61.910072,85.9411214 64.8335734,83.005202 68.2777618,83.5346662 C70.4236454,83.864388 72.177795,85.625597 72.5063934,87.7806607 L72.5063934,87.7806607 Z" id="Shape" fill="url(#linearGradient-1)"></path>
                <path d="M62.7961662,89.3418824 C62.3059501,86.129359 65.0220055,83.4019942 68.2212078,83.8942515 C70.2144931,84.2012085 71.8433463,85.8373337 72.1485429,87.8386741 C72.6382715,91.050708 69.9229474,93.7773385 66.7239889,93.2855707 C64.7307036,92.9791032 63.1016066,91.3432229 62.7961662,89.3418824 L62.7961662,89.3418824 Z" id="Shape" fill="url(#linearGradient-2)"></path>
                <path d="M22.6864488,77.8221807 C25.4188366,77.8221807 28.2570194,78.7401145 31.1824709,80.5767164 L30.7663601,81.2459513 C25.126072,77.707133 20.0596122,77.701503 15.2744598,81.2293061 L14.809108,80.5933616 C17.315036,78.7459893 19.9474792,77.8221807 22.6864488,77.8221807 L22.6864488,77.8221807 Z" id="Shape" fill="#3A556A"></path>
                <path d="M13.1687978,94.6524353 C13.8986371,95.5397713 15.0699391,96.192361 16.4391801,96.6584266 L16.4391801,94.9762824 C15.5170083,94.6073954 14.801795,94.157975 14.3817839,93.6468695 C12.9523324,91.9086701 13.7245873,86.4784186 16.4998781,78.7501506 C17.4815291,76.0154423 20.0971524,74.1778613 23.0082216,74.1778613 C25.9192909,74.1778613 28.5346704,76.0154423 29.5175402,78.749661 C32.291856,86.4796425 33.0633795,91.9094044 31.634903,93.6468695 C31.2151357,94.1577302 30.4996787,94.6073954 29.5775069,94.9762824 L29.5775069,96.657937 C30.9467479,96.1921162 32.1180499,95.5395265 32.8476454,94.6521905 C34.7175845,92.3774282 34.0952465,86.8470608 30.9959889,78.214322 C29.790072,74.8554188 26.5794127,72.5992599 23.0082216,72.5992599 C19.4362992,72.5992599 16.2263712,74.8561531 15.0211856,78.214322 C11.9214404,86.8460817 11.298615,92.3764491 13.1687978,94.6524353 L13.1687978,94.6524353 Z" id="Shape" fill="#EBF0F3"></path>
                <g id="Group" transform="translate(16.088643, 62.664279)" fill="#3A556A">
                    <path d="M10.8742161,32.2001377 C11.2449861,31.8013873 12.6915014,32.0353992 13.2728864,32.149223 C13.4169529,32.177373 13.5168975,32.2924207 13.5168975,32.4250927 L13.5168975,33.9784814 C13.5168975,34.1111535 13.4169529,34.2264459 13.2728864,34.2543511 C12.6915014,34.3679301 11.2449861,34.6021868 10.8742161,34.2034364 C10.5448864,33.8494811 10.5448864,32.5543378 10.8742161,32.2001377 L10.8742161,32.2001377 Z" id="Shape"></path>
                    <path d="M2.83111357,34.2036812 C2.46034349,34.6026764 1.01382825,34.3684197 0.432443213,34.2545959 C0.288376731,34.2264459 0.1886759,34.1111535 0.1886759,33.9787262 L0.1886759,32.4253375 C0.1886759,32.2926655 0.288620499,32.177373 0.432443213,32.1494678 C1.01382825,32.035644 2.46034349,31.8016321 2.83111357,32.2003825 C3.16044321,32.5543378 3.16044321,33.8494811 2.83111357,34.2036812 L2.83111357,34.2036812 Z" id="Shape"></path>
                    <path d="M11.3824709,10.6918478 C10.292831,10.0590855 9.06643767,9.66498592 7.77812742,9.53720954 C7.70012188,7.83744097 7.67403878,3.46636272 9.17320776,0.058992544 L6.65192244,1.8351332 C5.86967313,4.9164533 5.88722438,8.04721944 5.95621053,9.54455301 C4.70617175,9.68358938 3.51707479,10.076465 2.45693075,10.6918478 C2.17196676,10.8570759 2.07714127,11.2306138 2.22827701,11.5245974 L2.88279224,12.7979551 C3.01247645,13.0464092 3.26282548,13.1120108 3.51829363,12.9477619 C4.50993906,12.3105935 5.68904155,11.9691221 6.91933518,11.9691221 L6.91982271,11.9691221 L6.92031025,11.9691221 C8.15060388,11.9691221 9.32970637,12.3105935 10.3213518,12.9477619 C10.5768199,13.1120108 10.827169,13.0464092 10.9568532,12.7979551 L11.6113684,11.5245974 C11.7622604,11.2306138 11.6676787,10.8570759 11.3824709,10.6918478 L11.3824709,10.6918478 Z" id="Shape"></path>
                    <path d="M50.6780055,23.475116 C49.6144488,23.7840313 48.8317119,24.7580202 48.8317119,25.925632 C48.8317119,27.3407187 49.9740055,28.4877688 51.3832244,28.4877688 C52.7924432,28.4877688 53.9347368,27.3404739 53.9347368,25.925632 C53.9347368,24.9097853 53.3411634,24.0398289 52.4874903,23.6254123 C52.775867,16.3076443 50.3316122,6.44365032 49.1135069,2.04931775 L46.7818726,0.321399213 L46.7275125,0.339023541 C46.7752909,0.48956468 51.0075789,14.3327404 50.6780055,23.475116 L50.6780055,23.475116 Z" id="Shape"></path>
                </g>
                <path d="M67.0065152,88.8506043 C66.7703047,88.3637322 67.2471136,87.8851827 67.731723,88.1223768 C67.8180166,88.1647242 67.8955346,88.2423202 67.9374626,88.3289731 C68.1734294,88.8158452 67.6968643,89.2941499 67.2122548,89.0572006 C67.126205,89.015098 67.048687,88.9372572 67.0065152,88.8506043 L67.0065152,88.8506043 Z" id="Shape" fill="#2F4859"></path>
                <path d="M56.6571302,53.4886131 L54.9276011,55.1599869 C54.9276011,55.1599869 61.5227258,62.9969383 51.1043546,73.3071705 C50.331856,74.0716257 49.6524765,74.9227339 49.0508587,75.8289181 C47.5777729,78.0486044 44.9185152,82.2681624 42.8677008,86.7065558 C42.9693518,86.770444 43.0692964,86.8399621 43.165097,86.9229434 C44.1920886,87.8139511 44.9482548,88.9624698 45.53159,90.2040059 L59.7988033,73.7952665 C59.9592022,73.6104558 60.0437895,73.3713034 60.0350139,73.1262763 L59.8814404,68.8611888 L62.5121773,70.0327171 C63.1342715,70.3098107 63.8365651,69.8689577 63.8614294,69.186015 C63.9774626,65.969575 63.5143047,57.9845303 56.6571302,53.4886131 L56.6571302,53.4886131 Z" id="Shape" fill="#31978C"></path>
                <path d="M48.2612964,96.5301607 C48.1689086,89.9548174 41.8645983,79.7836216 39.2516565,75.8445842 C38.6449197,74.9298326 37.9587147,74.0708914 37.1793906,73.2988479 C26.7727202,62.992777 33.3646759,55.1599869 33.3646759,55.1599869 L31.634903,53.4886131 C24.7774848,57.9842855 24.3145706,65.969575 24.4310914,69.186015 C24.4557119,69.8689577 25.1580055,70.3098107 25.7800997,70.0327171 L28.4108366,68.8611888 L28.2572632,73.1262763 C28.2487313,73.3713034 28.3330748,73.6104558 28.4937175,73.7952665 L48.2612964,96.5301607 L48.2612964,96.5301607 Z" id="Shape" fill="#3EA69B"></path>
                <path d="M32.2379834,14.5092284 C32.8083989,14.5092284 33.3619945,14.6316196 33.8907258,14.8604911 C37.1867036,16.4373789 40.571169,17.1381908 44.0326648,17.07161 C47.4941607,17.1381908 50.8783823,16.4373789 54.1743601,14.8604911 C54.7033352,14.6316196 55.2569307,14.5092284 55.8271025,14.5092284 C58.4712465,14.5092284 60.758759,17.1208112 61.8564432,20.9186092 C62.2415956,22.2512043 63.2169086,29.2064497 63.4672576,32.6640003 L63.4679889,32.6640003 L65.0568643,13.3949792 C65.0568643,13.3949792 60.6556454,-1.76218807 44.7130194,0.170613291 C44.2613186,0.225199753 43.8037673,0.225199753 43.3520665,0.170613291 C27.4091967,-1.76218807 23.0079778,13.3949792 23.0079778,13.3949792 L24.5968532,32.6640003 L24.5975845,32.6640003 C24.8481773,29.2062049 25.8234903,22.2512043 26.2086427,20.9186092 C27.3065706,17.1208112 29.5940831,14.5092284 32.2379834,14.5092284 L32.2379834,14.5092284 Z" id="Shape" fill="#64798A"></path>
                <path d="M61.856687,20.9183644 C60.758759,17.1205664 58.4714903,14.5089837 55.8273463,14.5089837 C55.2569307,14.5089837 54.7033352,14.6313748 54.1746039,14.8602463 C50.878626,16.4371341 47.4944044,17.137946 44.0329086,17.0713652 C40.5714127,17.137946 37.1871911,16.4371341 33.8909695,14.8602463 C33.3622382,14.6313748 32.8083989,14.5089837 32.2382271,14.5089837 C29.5943269,14.5089837 27.3068144,17.1205664 26.2091302,20.9183644 C25.8237341,22.2509595 24.8486648,29.2062049 24.598072,32.6637555 C24.5600443,33.1888136 24.538349,33.6355414 24.538349,33.9672214 C24.538349,47.5803017 33.2664377,61.3015758 44.0331524,61.3015758 C54.799867,61.3015758 63.5279557,47.5803017 63.5279557,33.9672214 C63.5279557,33.6355414 63.5062604,33.1888136 63.4679889,32.6637555 C63.2171524,29.2062049 62.2418393,22.2509595 61.856687,20.9183644 L61.856687,20.9183644 Z" id="Shape" fill="#FCD462"></path>
            </g>
        </g>
    </g>
</svg>