<?xml version="1.0" encoding="UTF-8"?>
<svg width="150px" height="150px" viewBox="0 0 150 150" version="1.1" xmlns="http://www.w3.org/2000/svg" xmlns:xlink="http://www.w3.org/1999/xlink">
    <!-- Generator: Sketch 40.1 (33804) - http://www.bohemiancoding.com/sketch -->
    <title>EmptyState</title>
    <desc>Created with Sketch.</desc>
    <defs>
        <circle id="path-1" cx="75" cy="75" r="75"></circle>
        <mask id="mask-2" maskContentUnits="userSpaceOnUse" maskUnits="objectBoundingBox" x="0" y="0" width="150" height="150" fill="white">
            <use xlink:href="#path-1"></use>
        </mask>
    </defs>
    <g id="Page-1" stroke="none" stroke-width="1" fill="none" fill-rule="evenodd">
        <g id="Empty-State---Error-Connection" transform="translate(-105.000000, -131.000000)">
            <g id="EmptyState" transform="translate(105.000000, 131.000000)">
                <g id="wifi-notification" transform="translate(28.000000, 25.000000)" fill="#0068E9">
                    <g id="Group">
                        <path d="M92.5406667,18.8535201 C80.3423333,6.69578859 64.1236667,0 46.872,0 C29.6203333,0 13.4013333,6.69545638 1.20266667,18.8535201 C-0.359666667,20.4106107 -0.359666667,22.9344463 1.20266667,24.4915369 C2.76533333,26.0482953 5.29766667,26.0482953 6.85966667,24.4915369 C17.547,13.8394027 31.757,7.97315436 46.872,7.97315436 C61.9866667,7.97315436 76.1966667,13.8394027 86.8836667,24.4915369 C87.665,25.2699161 88.6883333,25.6592718 89.712,25.6592718 C90.7353333,25.6592718 91.7596667,25.2699161 92.5403333,24.4915369 C94.1026667,22.9344463 94.1026667,20.4106107 92.5406667,18.8535201 L92.5406667,18.8535201 Z" id="Shape"></path>
                        <path d="M46.872,17.7090403 C34.3663333,17.7090403 22.6096667,22.5623658 13.7673333,31.3756913 C12.205,32.9327819 12.205,35.4566174 13.7673333,37.0137081 C15.33,38.5704664 17.8623333,38.5704664 19.4243333,37.0137081 C26.7556667,29.7066443 36.5036667,25.6825268 46.8723333,25.6825268 C57.2406667,25.6825268 66.9886667,29.7066443 74.32,37.0137081 C75.1013333,37.7920872 76.1246667,38.181443 77.1483333,38.181443 C78.1716667,38.181443 79.196,37.7920872 79.9766667,37.0137081 C81.539,35.4566174 81.539,32.9327819 79.9766667,31.3756913 C71.134,22.5623658 59.3773333,17.7090403 46.872,17.7090403 L46.872,17.7090403 Z" id="Shape"></path>
                        <path d="M32.003,49.5495 C35.974,45.5911611 41.2546667,43.4111678 46.8716667,43.4111678 C52.489,43.4111678 57.7696667,45.5911611 61.7416667,49.5498322 C62.523,50.3282114 63.5463333,50.7175671 64.57,50.7175671 C65.5936667,50.7175671 66.6176667,50.3282114 67.3983333,49.5498322 C68.9606667,47.9927416 68.9606667,45.468906 67.3983333,43.9118154 C61.9153333,38.447547 54.6253333,35.4380134 46.8713333,35.4380134 C39.117,35.4380134 31.8273333,38.447547 26.345,43.9121477 C24.783,45.4692383 24.7833333,47.9930738 26.3456667,49.5501644 C27.908,51.1069228 30.4406667,51.1069228 32.003,49.5495 L32.003,49.5495 Z" id="Shape"></path>
                        <path d="M72.49,94.6054631 L48.973,54.0098154 C48.4966667,53.1872517 47.6166667,52.6809564 46.6636667,52.6809564 C45.711,52.6809564 44.8306667,53.1872517 44.3543333,54.0098154 L20.7493333,94.7572852 C20.2726667,95.579849 20.2726667,96.5924396 20.749,97.4150034 C21.2256667,98.2375671 22.1056667,98.7438624 23.0586667,98.7438624 L70.269,98.7438624 L70.2756667,98.7438624 C71.7486667,98.7438624 72.9423333,97.5538691 72.9423333,96.0861443 C72.942,95.5379899 72.7756667,95.0287047 72.49,94.6054631 L72.49,94.6054631 Z M43.7606667,65.8549329 C43.7606667,65.5655738 43.9266667,65.2878423 44.0123333,65.0270537 C44.1276667,64.6768993 44.3736667,64.3599664 44.6136667,64.0912047 C45.1023333,63.544047 45.8413333,63.197547 46.634,63.197547 C47.4273333,63.197547 48.1526667,63.5450436 48.641,64.0928658 C48.88,64.3609631 48.955,64.6762349 49.0696667,65.0247282 C49.156,65.2861812 49.0936667,65.5649094 49.0936667,65.8552651 L49.0936667,82.4660034 C49.0936667,83.9337282 47.8996667,85.1237215 46.427,85.1237215 C44.9543333,85.1237215 43.7603333,83.9337282 43.7603333,82.4660034 L43.7603333,65.8549329 L43.7606667,65.8549329 Z M46.664,93.1294329 C45.1916667,93.1294329 43.9973333,91.9391074 43.9973333,90.4717148 C43.9973333,89.0043221 45.1916667,87.8139966 46.664,87.8139966 C48.1363333,87.8139966 49.3306667,89.0043221 49.3306667,90.4717148 C49.3306667,91.9391074 48.1363333,93.1294329 46.664,93.1294329 L46.664,93.1294329 Z" id="Shape"></path>
                    </g>
                </g>
                <use id="Oval" stroke="#0068E9" mask="url(#mask-2)" stroke-width="2" xlink:href="#path-1"></use>
            </g>
        </g>
    </g>
</svg>